<?xml version="1.0" standalone="no"?>
<!DOCTYPE svg PUBLIC "-//W3C//DTD SVG 20010904//EN"
 "http://www.w3.org/TR/2001/REC-SVG-20010904/DTD/svg10.dtd">
<svg version="1.0" xmlns="http://www.w3.org/2000/svg"
 width="364.000000pt" height="326.000000pt" viewBox="0 0 364.000000 326.000000"
 preserveAspectRatio="xMidYMid meet">
<metadata>
Created by potrace 1.15, written by Peter Selinger 2001-2017
</metadata>
<g transform="translate(0.000000,326.000000) scale(0.100000,-0.100000)"
fill="#000000" stroke="none">
<path d="M2363 2635 c-224 -40 -366 -191 -408 -434 -14 -77 -12 -98 8 -98 65
-1 423 -135 411 -154 -3 -5 2 -6 10 -3 8 3 38 -9 68 -26 29 -18 45 -29 35 -26
-11 4 -16 2 -12 -5 4 -6 13 -8 21 -5 13 5 191 -89 255 -134 l30 -22 -7 38 c-4
22 -16 65 -28 97 -21 59 -21 59 -93 89 -43 17 -94 49 -123 75 -60 54 -70 90
-12 43 66 -53 132 -72 277 -79 127 -7 132 -8 212 -49 111 -56 135 -56 173 5
17 26 30 55 30 66 0 10 -47 69 -105 131 -129 138 -155 172 -155 207 0 21 -15
39 -70 83 -38 31 -70 60 -70 63 0 4 12 20 28 36 26 27 26 29 8 42 -29 22 -133
54 -211 65 -92 13 -183 11 -272 -5z"/>
<path d="M1601 2610 c-320 -84 -703 -401 -964 -798 -69 -105 -141 -233 -181
-324 l-25 -57 162 80 c89 43 216 100 281 127 104 42 121 51 127 75 4 16 3 25
-2 21 -5 -3 -9 21 -9 54 0 66 26 156 42 145 7 -4 8 -1 4 6 -11 17 37 83 87
118 115 83 207 107 407 107 124 0 226 -11 292 -30 15 -4 17 7 16 118 0 68 5
143 11 168 43 179 -42 244 -248 190z"/>
<path d="M1973 1235 c-97 -27 -175 -94 -217 -184 -15 -35 -20 -66 -20 -131 0
-107 25 -170 95 -235 73 -68 126 -89 229 -89 100 0 168 19 223 65 l38 31 -3
141 -3 142 -127 2 -128 1 0 -59 0 -59 65 0 65 0 0 -59 0 -59 -37 -13 c-52 -18
-141 -16 -179 4 -146 75 -148 292 -4 365 59 29 150 30 205 2 l40 -21 37 43 37
43 -27 22 c-62 51 -198 74 -289 48z"/>
<path d="M610 915 l0 -306 68 3 67 3 3 90 3 91 75 1 c177 2 266 73 266 213 0
70 -22 120 -69 159 -51 42 -95 51 -262 51 l-151 0 0 -305z m321 156 c31 -31
36 -64 18 -105 -17 -36 -67 -56 -138 -56 l-61 0 0 95 0 95 76 0 c70 0 78 -2
105 -29z"/>
<path d="M1200 915 l0 -305 230 0 230 0 0 60 0 60 -165 0 -165 0 0 65 0 65
130 0 131 0 -3 58 -3 57 -127 0 -128 0 0 62 0 63 161 2 162 3 2 58 2 57 -228
0 -229 0 0 -305z"/>
<path d="M2517 922 c-70 -165 -127 -303 -127 -306 0 -4 30 -6 66 -4 l65 3 28
65 27 65 128 0 129 0 28 -65 27 -65 66 -3 c40 -2 66 1 66 7 0 6 -56 142 -125
303 l-124 293 -63 3 -63 3 -128 -299z m227 45 c20 -48 36 -91 36 -95 0 -4 -34
-7 -75 -7 -41 0 -75 3 -75 8 0 10 73 188 76 184 1 -1 18 -41 38 -90z"/>
</g>
</svg>
